# xmcd CD database file
#
# Track frame offsets:
#	150
#	42671
#	84090
#	110420
#	161740
#	196336
#	221494
#
# Disc length: 3216 seconds
#
# Revision: 0
# Processed by: cddbd v1.5.1PL2 Copyright (c) Steve Scherf et al.
# Submitted via: CDex 1.51
#
DISCID=590c8e07
DTITLE=Laszlo Süle And Pentti Lahti - Absence
DYEAR=2004
DGENRE=New Age
TTITLE0=Morning Prayer
TTITLE1=Song Of The Dancing Water
TTITLE2=Easy Waking
TTITLE3=Light And Gravity
TTITLE4=Absence
TTITLE5=Stone Flower
TTITLE6=Wounded Birds On Wounded Meadows
EXTD=YEAR: 2004
EXTT0=
EXTT1=
EXTT2=
EXTT3=
EXTT4=
EXTT5=
EXTT6=
PLAYORDER=
